<svg width="17" height="18" viewBox="0 0 17 18" xmlns="http://www.w3.org/2000/svg"><path d="M10.808 6.525c-.48 1.05-1.13 1.837-2.12 2.83-.993.99-1.823 1.682-2.83 2.12l-.496-.497c-.395-.395-1.035-.448-1.57-.13l-3.464 1.95c-.33.195-.47.605-.31.915.014.026.03.05.045.073.862 2.36 1.606 3.52 2.23 3.484.94-.054 5.847-3.834 8.162-6.15 2.314-2.313 6.094-7.22 6.148-8.16.036-.625-1.125-1.368-3.483-2.23-.28-.203-.7-.12-.937.186-.02.025-.037.052-.053.08l-1.95 3.463c-.316.533-.263 1.174.13 1.568l.498.497z" fill="#3D4051" fill-rule="evenodd"/></svg>